<svg id="visual" viewBox="0 0 900 100" width="900" height="100" xmlns="http://www.w3.org/2000/svg" xmlns:xlink="http://www.w3.org/1999/xlink" version="1.1"><rect x="0" y="0" width="900" height="100" fill="#cce2e2"></rect><path d="M0 41L30 38.3C60 35.7 120 30.3 180 30.8C240 31.3 300 37.7 360 44.7C420 51.7 480 59.3 540 60.8C600 62.3 660 57.7 720 54.3C780 51 840 49 870 48L900 47L900 101L870 101C840 101 780 101 720 101C660 101 600 101 540 101C480 101 420 101 360 101C300 101 240 101 180 101C120 101 60 101 30 101L0 101Z" fill="#5e8248" stroke-linecap="round" stroke-linejoin="miter"></path></svg>