<svg id="visual" viewBox="0 0 960 200" width="960" height="200" xmlns="http://www.w3.org/2000/svg" xmlns:xlink="http://www.w3.org/1999/xlink" version="1.1"><rect x="0" y="0" width="960" height="200" fill="#CCE2E2"></rect><path d="M0 160L22.8 156C45.7 152 91.3 144 137 140.7C182.7 137.3 228.3 138.7 274 139.2C319.7 139.7 365.3 139.3 411.2 135.2C457 131 503 123 548.8 121.8C594.7 120.7 640.3 126.3 686 134C731.7 141.7 777.3 151.3 823 150.5C868.7 149.7 914.3 138.3 937.2 132.7L960 127L960 0L937.2 0C914.3 0 868.7 0 823 0C777.3 0 731.7 0 686 0C640.3 0 594.7 0 548.8 0C503 0 457 0 411.2 0C365.3 0 319.7 0 274 0C228.3 0 182.7 0 137 0C91.3 0 45.7 0 22.8 0L0 0Z" fill="#5e8248"></path><path d="M0 114L22.8 117C45.7 120 91.3 126 137 122.5C182.7 119 228.3 106 274 103C319.7 100 365.3 107 411.2 113.5C457 120 503 126 548.8 124C594.7 122 640.3 112 686 106.8C731.7 101.7 777.3 101.3 823 101.5C868.7 101.7 914.3 102.3 937.2 102.7L960 103L960 0L937.2 0C914.3 0 868.7 0 823 0C777.3 0 731.7 0 686 0C640.3 0 594.7 0 548.8 0C503 0 457 0 411.2 0C365.3 0 319.7 0 274 0C228.3 0 182.7 0 137 0C91.3 0 45.7 0 22.8 0L0 0Z" fill="#62894a"></path><path d="M0 92L22.8 93.8C45.7 95.7 91.3 99.3 137 100C182.7 100.7 228.3 98.3 274 96.8C319.7 95.3 365.3 94.7 411.2 93.7C457 92.7 503 91.3 548.8 88.5C594.7 85.7 640.3 81.3 686 78.3C731.7 75.3 777.3 73.7 823 72C868.7 70.3 914.3 68.7 937.2 67.8L960 67L960 0L937.2 0C914.3 0 868.7 0 823 0C777.3 0 731.7 0 686 0C640.3 0 594.7 0 548.8 0C503 0 457 0 411.2 0C365.3 0 319.7 0 274 0C228.3 0 182.7 0 137 0C91.3 0 45.7 0 22.8 0L0 0Z" fill="#66904c"></path><path d="M0 73L22.8 70.5C45.7 68 91.3 63 137 61.2C182.7 59.3 228.3 60.7 274 61.5C319.7 62.3 365.3 62.7 411.2 60.8C457 59 503 55 548.8 55.2C594.7 55.3 640.3 59.7 686 62C731.7 64.3 777.3 64.7 823 65.3C868.7 66 914.3 67 937.2 67.5L960 68L960 0L937.2 0C914.3 0 868.7 0 823 0C777.3 0 731.7 0 686 0C640.3 0 594.7 0 548.8 0C503 0 457 0 411.2 0C365.3 0 319.7 0 274 0C228.3 0 182.7 0 137 0C91.3 0 45.7 0 22.8 0L0 0Z" fill="#6a974e"></path><path d="M0 29L22.8 27.7C45.7 26.3 91.3 23.7 137 22.3C182.7 21 228.3 21 274 21.2C319.7 21.3 365.3 21.7 411.2 23.5C457 25.3 503 28.7 548.8 31C594.7 33.3 640.3 34.7 686 32.7C731.7 30.7 777.3 25.3 823 26.7C868.7 28 914.3 36 937.2 40L960 44L960 0L937.2 0C914.3 0 868.7 0 823 0C777.3 0 731.7 0 686 0C640.3 0 594.7 0 548.8 0C503 0 457 0 411.2 0C365.3 0 319.7 0 274 0C228.3 0 182.7 0 137 0C91.3 0 45.7 0 22.8 0L0 0Z" fill="#6f9f50"></path></svg>