<svg id="visual" viewBox="0 0 900 600" width="900" height="600" xmlns="http://www.w3.org/2000/svg" xmlns:xlink="http://www.w3.org/1999/xlink" version="1.1"><rect x="0" y="0" width="900" height="600" fill="#CCE2E2"></rect><path d="M0 226L21.5 219.7C43 213.3 86 200.7 128.8 197.5C171.7 194.3 214.3 200.7 257.2 210.2C300 219.7 343 232.3 385.8 227.8C428.7 223.3 471.3 201.7 514.2 197.8C557 194 600 208 642.8 209.2C685.7 210.3 728.3 198.7 771.2 199.2C814 199.7 857 212.3 878.5 218.7L900 225L900 0L878.5 0C857 0 814 0 771.2 0C728.3 0 685.7 0 642.8 0C600 0 557 0 514.2 0C471.3 0 428.7 0 385.8 0C343 0 300 0 257.2 0C214.3 0 171.7 0 128.8 0C86 0 43 0 21.5 0L0 0Z" fill="#5e8248"></path><path d="M0 173L21.5 171.2C43 169.3 86 165.7 128.8 166.3C171.7 167 214.3 172 257.2 172.3C300 172.7 343 168.3 385.8 171.8C428.7 175.3 471.3 186.7 514.2 183.5C557 180.3 600 162.7 642.8 157.8C685.7 153 728.3 161 771.2 160C814 159 857 149 878.5 144L900 139L900 0L878.5 0C857 0 814 0 771.2 0C728.3 0 685.7 0 642.8 0C600 0 557 0 514.2 0C471.3 0 428.7 0 385.8 0C343 0 300 0 257.2 0C214.3 0 171.7 0 128.8 0C86 0 43 0 21.5 0L0 0Z" fill="#62894a"></path><path d="M0 155L21.5 154.7C43 154.3 86 153.7 128.8 146C171.7 138.3 214.3 123.7 257.2 122.5C300 121.3 343 133.7 385.8 137C428.7 140.3 471.3 134.7 514.2 128.7C557 122.7 600 116.3 642.8 118.5C685.7 120.7 728.3 131.3 771.2 130.2C814 129 857 116 878.5 109.5L900 103L900 0L878.5 0C857 0 814 0 771.2 0C728.3 0 685.7 0 642.8 0C600 0 557 0 514.2 0C471.3 0 428.7 0 385.8 0C343 0 300 0 257.2 0C214.3 0 171.7 0 128.8 0C86 0 43 0 21.5 0L0 0Z" fill="#66904c"></path><path d="M0 92L21.5 91.3C43 90.7 86 89.3 128.8 86.5C171.7 83.7 214.3 79.3 257.2 80.5C300 81.7 343 88.3 385.8 88.8C428.7 89.3 471.3 83.7 514.2 81.8C557 80 600 82 642.8 87.5C685.7 93 728.3 102 771.2 102.3C814 102.7 857 94.3 878.5 90.2L900 86L900 0L878.5 0C857 0 814 0 771.2 0C728.3 0 685.7 0 642.8 0C600 0 557 0 514.2 0C471.3 0 428.7 0 385.8 0C343 0 300 0 257.2 0C214.3 0 171.7 0 128.8 0C86 0 43 0 21.5 0L0 0Z" fill="#6a974e"></path><path d="M0 46L21.5 46C43 46 86 46 128.8 47.7C171.7 49.3 214.3 52.7 257.2 56C300 59.3 343 62.7 385.8 59.8C428.7 57 471.3 48 514.2 43.8C557 39.7 600 40.3 642.8 41.3C685.7 42.3 728.3 43.7 771.2 47.8C814 52 857 59 878.5 62.5L900 66L900 0L878.5 0C857 0 814 0 771.2 0C728.3 0 685.7 0 642.8 0C600 0 557 0 514.2 0C471.3 0 428.7 0 385.8 0C343 0 300 0 257.2 0C214.3 0 171.7 0 128.8 0C86 0 43 0 21.5 0L0 0Z" fill="#6f9f50"></path></svg>