<svg id="visual" viewBox="0 0 900 100" width="900" height="100" xmlns="http://www.w3.org/2000/svg" xmlns:xlink="http://www.w3.org/1999/xlink" version="1.1"><rect x="0" y="0" width="900" height="100" fill="#cce2e2"></rect><path d="M0 54L21.5 53.2C43 52.3 86 50.7 128.8 47.2C171.7 43.7 214.3 38.3 257.2 36C300 33.7 343 34.3 385.8 32.3C428.7 30.3 471.3 25.7 514.2 23C557 20.3 600 19.7 642.8 21.2C685.7 22.7 728.3 26.3 771.2 31.3C814 36.3 857 42.7 878.5 45.8L900 49L900 101L878.5 101C857 101 814 101 771.2 101C728.3 101 685.7 101 642.8 101C600 101 557 101 514.2 101C471.3 101 428.7 101 385.8 101C343 101 300 101 257.2 101C214.3 101 171.7 101 128.8 101C86 101 43 101 21.5 101L0 101Z" fill="#d28f34"></path><path d="M0 51L21.5 51.8C43 52.7 86 54.3 128.8 55.2C171.7 56 214.3 56 257.2 53.8C300 51.7 343 47.3 385.8 49.2C428.7 51 471.3 59 514.2 60.2C557 61.3 600 55.7 642.8 52C685.7 48.3 728.3 46.7 771.2 49.2C814 51.7 857 58.3 878.5 61.7L900 65L900 101L878.5 101C857 101 814 101 771.2 101C728.3 101 685.7 101 642.8 101C600 101 557 101 514.2 101C471.3 101 428.7 101 385.8 101C343 101 300 101 257.2 101C214.3 101 171.7 101 128.8 101C86 101 43 101 21.5 101L0 101Z" fill="#928d34"></path><path d="M0 66L21.5 68.7C43 71.3 86 76.7 128.8 77.8C171.7 79 214.3 76 257.2 75.5C300 75 343 77 385.8 75.2C428.7 73.3 471.3 67.7 514.2 68.8C557 70 600 78 642.8 80.8C685.7 83.7 728.3 81.3 771.2 77.5C814 73.7 857 68.3 878.5 65.7L900 63L900 101L878.5 101C857 101 814 101 771.2 101C728.3 101 685.7 101 642.8 101C600 101 557 101 514.2 101C471.3 101 428.7 101 385.8 101C343 101 300 101 257.2 101C214.3 101 171.7 101 128.8 101C86 101 43 101 21.5 101L0 101Z" fill="#5e8248"></path></svg>