<svg id="visual" viewBox="0 0 900 100" width="900" height="100" xmlns="http://www.w3.org/2000/svg" xmlns:xlink="http://www.w3.org/1999/xlink" version="1.1"><rect x="0" y="0" width="900" height="100" fill="#cce2e2"></rect><path d="M0 64L11.5 64.7C23 65.3 46 66.7 69 65.5C92 64.3 115 60.7 138.2 58.5C161.3 56.3 184.7 55.7 207.8 57.8C231 60 254 65 277 67C300 69 323 68 346 68.8C369 69.7 392 72.3 415.2 72.2C438.3 72 461.7 69 484.8 69.3C508 69.7 531 73.3 554 76C577 78.7 600 80.3 623 79.5C646 78.7 669 75.3 692.2 73.7C715.3 72 738.7 72 761.8 71.7C785 71.3 808 70.7 831 71.3C854 72 877 74 888.5 75L900 76L900 0L888.5 0C877 0 854 0 831 0C808 0 785 0 761.8 0C738.7 0 715.3 0 692.2 0C669 0 646 0 623 0C600 0 577 0 554 0C531 0 508 0 484.8 0C461.7 0 438.3 0 415.2 0C392 0 369 0 346 0C323 0 300 0 277 0C254 0 231 0 207.8 0C184.7 0 161.3 0 138.2 0C115 0 92 0 69 0C46 0 23 0 11.5 0L0 0Z" fill="#5e8248"></path><path d="M0 61L11.5 58.2C23 55.3 46 49.7 69 46.7C92 43.7 115 43.3 138.2 45.3C161.3 47.3 184.7 51.7 207.8 52.2C231 52.7 254 49.3 277 51.2C300 53 323 60 346 59C369 58 392 49 415.2 45.5C438.3 42 461.7 44 484.8 48.2C508 52.3 531 58.7 554 61C577 63.3 600 61.7 623 61.2C646 60.7 669 61.3 692.2 61.7C715.3 62 738.7 62 761.8 58.5C785 55 808 48 831 49C854 50 877 59 888.5 63.5L900 68L900 0L888.5 0C877 0 854 0 831 0C808 0 785 0 761.8 0C738.7 0 715.3 0 692.2 0C669 0 646 0 623 0C600 0 577 0 554 0C531 0 508 0 484.8 0C461.7 0 438.3 0 415.2 0C392 0 369 0 346 0C323 0 300 0 277 0C254 0 231 0 207.8 0C184.7 0 161.3 0 138.2 0C115 0 92 0 69 0C46 0 23 0 11.5 0L0 0Z" fill="#62894a"></path><path d="M0 53L11.5 51.3C23 49.7 46 46.3 69 43.7C92 41 115 39 138.2 37.3C161.3 35.7 184.7 34.3 207.8 36.7C231 39 254 45 277 47.7C300 50.3 323 49.7 346 47.7C369 45.7 392 42.3 415.2 40C438.3 37.7 461.7 36.3 484.8 35.7C508 35 531 35 554 34.8C577 34.7 600 34.3 623 34.5C646 34.7 669 35.3 692.2 37.7C715.3 40 738.7 44 761.8 43C785 42 808 36 831 34C854 32 877 34 888.5 35L900 36L900 0L888.5 0C877 0 854 0 831 0C808 0 785 0 761.8 0C738.7 0 715.3 0 692.2 0C669 0 646 0 623 0C600 0 577 0 554 0C531 0 508 0 484.8 0C461.7 0 438.3 0 415.2 0C392 0 369 0 346 0C323 0 300 0 277 0C254 0 231 0 207.8 0C184.7 0 161.3 0 138.2 0C115 0 92 0 69 0C46 0 23 0 11.5 0L0 0Z" fill="#66904c"></path><path d="M0 26L11.5 27C23 28 46 30 69 29.5C92 29 115 26 138.2 26.8C161.3 27.7 184.7 32.3 207.8 31.8C231 31.3 254 25.7 277 24.3C300 23 323 26 346 26.3C369 26.7 392 24.3 415.2 23C438.3 21.7 461.7 21.3 484.8 23C508 24.7 531 28.3 554 29.5C577 30.7 600 29.3 623 30C646 30.7 669 33.3 692.2 33.8C715.3 34.3 738.7 32.7 761.8 30.3C785 28 808 25 831 24.5C854 24 877 26 888.5 27L900 28L900 0L888.5 0C877 0 854 0 831 0C808 0 785 0 761.8 0C738.7 0 715.3 0 692.2 0C669 0 646 0 623 0C600 0 577 0 554 0C531 0 508 0 484.8 0C461.7 0 438.3 0 415.2 0C392 0 369 0 346 0C323 0 300 0 277 0C254 0 231 0 207.8 0C184.7 0 161.3 0 138.2 0C115 0 92 0 69 0C46 0 23 0 11.5 0L0 0Z" fill="#6a974e"></path><path d="M0 9L11.5 10.7C23 12.3 46 15.7 69 17.8C92 20 115 21 138.2 20.3C161.3 19.7 184.7 17.3 207.8 16.7C231 16 254 17 277 16.7C300 16.3 323 14.7 346 14.7C369 14.7 392 16.3 415.2 18.2C438.3 20 461.7 22 484.8 22.8C508 23.7 531 23.3 554 21.8C577 20.3 600 17.7 623 17C646 16.3 669 17.7 692.2 19C715.3 20.3 738.7 21.7 761.8 22.5C785 23.3 808 23.7 831 23C854 22.3 877 20.7 888.5 19.8L900 19L900 0L888.5 0C877 0 854 0 831 0C808 0 785 0 761.8 0C738.7 0 715.3 0 692.2 0C669 0 646 0 623 0C600 0 577 0 554 0C531 0 508 0 484.8 0C461.7 0 438.3 0 415.2 0C392 0 369 0 346 0C323 0 300 0 277 0C254 0 231 0 207.8 0C184.7 0 161.3 0 138.2 0C115 0 92 0 69 0C46 0 23 0 11.5 0L0 0Z" fill="#6f9f50"></path></svg>