<svg id="visual" viewBox="0 0 900 100" width="900" height="100" xmlns="http://www.w3.org/2000/svg" xmlns:xlink="http://www.w3.org/1999/xlink" version="1.1"><rect x="0" y="0" width="900" height="100" fill="#cce2e2"></rect><path d="M0 74L21.5 74.8C43 75.7 86 77.3 128.8 77.5C171.7 77.7 214.3 76.3 257.2 73.8C300 71.3 343 67.7 385.8 63.5C428.7 59.3 471.3 54.7 514.2 56.7C557 58.7 600 67.3 642.8 72C685.7 76.7 728.3 77.3 771.2 75.3C814 73.3 857 68.7 878.5 66.3L900 64L900 0L878.5 0C857 0 814 0 771.2 0C728.3 0 685.7 0 642.8 0C600 0 557 0 514.2 0C471.3 0 428.7 0 385.8 0C343 0 300 0 257.2 0C214.3 0 171.7 0 128.8 0C86 0 43 0 21.5 0L0 0Z" fill="#d28f34"></path><path d="M0 54L21.5 53.3C43 52.7 86 51.3 128.8 49.8C171.7 48.3 214.3 46.7 257.2 44.3C300 42 343 39 385.8 36.2C428.7 33.3 471.3 30.7 514.2 32.7C557 34.7 600 41.3 642.8 43.7C685.7 46 728.3 44 771.2 42C814 40 857 38 878.5 37L900 36L900 0L878.5 0C857 0 814 0 771.2 0C728.3 0 685.7 0 642.8 0C600 0 557 0 514.2 0C471.3 0 428.7 0 385.8 0C343 0 300 0 257.2 0C214.3 0 171.7 0 128.8 0C86 0 43 0 21.5 0L0 0Z" fill="#928d34"></path><path d="M0 13L21.5 15.2C43 17.3 86 21.7 128.8 24.8C171.7 28 214.3 30 257.2 28C300 26 343 20 385.8 18.7C428.7 17.3 471.3 20.7 514.2 22.3C557 24 600 24 642.8 23.5C685.7 23 728.3 22 771.2 21.8C814 21.7 857 22.3 878.5 22.7L900 23L900 0L878.5 0C857 0 814 0 771.2 0C728.3 0 685.7 0 642.8 0C600 0 557 0 514.2 0C471.3 0 428.7 0 385.8 0C343 0 300 0 257.2 0C214.3 0 171.7 0 128.8 0C86 0 43 0 21.5 0L0 0Z" fill="#5e8248"></path></svg>